<svg xmlns="http://www.w3.org/2000/svg" display="none">
    <symbol id="chat" viewBox="0 0 24 24" fill="none">
        <g>
            <path id="cloud"
                d="M19.0714 19.0699C16.0152 22.1263 11.4898 22.7867 7.78642 21.074C7.23971 20.8539 6.79149 20.676 6.36537 20.676C5.17849 20.683 3.70117 21.8339 2.93336 21.067C2.16555 20.2991 3.31726 18.8206 3.31726 17.6266C3.31726 17.2004 3.14642 16.7602 2.92632 16.2124C1.21283 12.5096 1.87411 7.98269 4.93026 4.92721C8.8316 1.02443 15.17 1.02443 19.0714 4.9262C22.9797 8.83501 22.9727 15.1681 19.0714 19.0699Z"
                stroke="#3D3D3D" stroke-width="1.5" stroke-linecap="round" stroke-linejoin="round" />
            <path id="dot-3" d="M15.9393 12.413H15.9483" stroke="#3D3D3D" stroke-width="2" stroke-linecap="round"
                stroke-linejoin="round" />
            <path id="dot-2" d="M11.9303 12.413H11.9393" stroke="#3D3D3D" stroke-width="2" stroke-linecap="round"
                stroke-linejoin="round" />
            <path id="dot-1" d="M7.92153 12.413H7.93053" stroke="#3D3D3D" stroke-width="2" stroke-linecap="round"
                stroke-linejoin="round" />
        </g>
    </symbol>
    <symbol id="eye" viewBox="0 0 24 24" fill="none">
        <g>
            <path id="pupil"
                d="M15.2566 12.3876C15.2566 14.3932 13.6301 16.0185 11.6245 16.0185C9.61899 16.0185 7.99365 14.3932 7.99365 12.3876C7.99365 10.381 9.61899 8.75562 11.6245 8.75562C13.6301 8.75562 15.2566 10.381 15.2566 12.3876Z"
                stroke="#3D3D3D" stroke-width="1.5" stroke-linecap="round" stroke-linejoin="round" />
            <path id="eye-pit"
                d="M11.6227 20.7749C15.9968 20.7749 19.9975 17.6299 22.25 12.3874C19.9975 7.145 15.9968 4 11.6227 4H11.6273C7.25324 4 3.2525 7.145 1 12.3874C3.2525 17.6299 7.25324 20.7749 11.6273 20.7749H11.6227Z"
                stroke="#3D3D3D" stroke-width="1.5" stroke-linecap="round" stroke-linejoin="round" />
        </g>
    </symbol>
    <symbol id="user" viewBox="0 0 18 18" fill="none">
        <path fill-rule="evenodd" clip-rule="evenodd"
            d="M8.9887 11.5096C6.08798 11.5096 3.61084 11.9482 3.61084 13.7046C3.61084 15.4611 6.07227 15.9154 8.9887 15.9154C11.8894 15.9154 14.3658 15.4761 14.3658 13.7204C14.3658 11.9646 11.9051 11.5096 8.9887 11.5096Z"
            stroke="#FF0000" stroke-width="1.5" stroke-linecap="round" stroke-linejoin="round" />
        <path fill-rule="evenodd" clip-rule="evenodd"
            d="M8.98867 9.00443C10.8922 9.00443 12.4351 7.46086 12.4351 5.55728C12.4351 3.65371 10.8922 2.11086 8.98867 2.11086C7.0851 2.11086 5.54152 3.65371 5.54152 5.55728C5.5351 7.45443 7.06795 8.998 8.96438 9.00443H8.98867Z"
            stroke="#FFA2A2" stroke-width="1.42857" stroke-linecap="round" stroke-linejoin="round" />
    </symbol>
    <symbol id="pen" viewBox="0 0 18 18" fill="none" xmlns="http://www.w3.org/2000/svg">
        <path d="M10.3105 15.3322H15.75" stroke="#FF0000" stroke-width="1.5" stroke-linecap="round"
            stroke-linejoin="round" />
        <path fill-rule="evenodd" clip-rule="evenodd"
            d="M9.58501 2.84609C10.1667 2.15084 11.2125 2.04889 11.9222 2.6188C11.9614 2.64972 13.2221 3.62909 13.2221 3.62909C14.0017 4.10039 14.244 5.10233 13.762 5.86694C13.7365 5.90789 6.60896 14.8234 6.60896 14.8234C6.37183 15.1192 6.01187 15.2938 5.62718 15.298L2.89765 15.3323L2.28265 12.7292C2.1965 12.3632 2.28265 11.9788 2.51978 11.683L9.58501 2.84609Z"
            stroke="#FFA2A2" stroke-width="1.5" stroke-linecap="round" stroke-linejoin="round" />
        <path d="M8.26562 4.50067L12.3548 7.64101" stroke="#FFA2A2" stroke-width="1.5" stroke-linecap="round"
            stroke-linejoin="round" />
    </symbol>
    <symbol id="lock" viewBox="0 0 18 18" fill="none" xmlns="http://www.w3.org/2000/svg">
        <path
            d="M12.3173 7.08585V5.4756C12.3173 3.59085 10.7888 2.06235 8.90406 2.06235C7.01931 2.0541 5.48481 3.5751 5.47656 5.4606V5.4756V7.08585"
            stroke="#FFA2A2" stroke-width="1.5" stroke-linecap="round" stroke-linejoin="round" />
        <path fill-rule="evenodd" clip-rule="evenodd"
            d="M11.7623 15.9372H6.0315C4.461 15.9372 3.1875 14.6644 3.1875 13.0932V9.87645C3.1875 8.3052 4.461 7.03245 6.0315 7.03245H11.7623C13.3328 7.03245 14.6063 8.3052 14.6063 9.87645V13.0932C14.6063 14.6644 13.3328 15.9372 11.7623 15.9372Z"
            stroke="#FFA2A2" stroke-width="1.5" stroke-linecap="round" stroke-linejoin="round" />
        <path d="M8.89697 10.652V12.3178" stroke="#FF0000" stroke-width="1.5" stroke-linecap="round"
            stroke-linejoin="round" />
    </symbol>
    <symbol id="user-plus" viewBox="0 0 24 24" fill="none" xmlns="http://www.w3.org/2000/svg">
        <path fill-rule="evenodd" clip-rule="evenodd"
            d="M9.5 12.5537C12.2546 12.5537 14.4626 10.3171 14.4626 7.52684C14.4626 4.73663 12.2546 2.5 9.5 2.5C6.74543 2.5 4.53737 4.73663 4.53737 7.52684C4.53737 10.3171 6.74543 12.5537 9.5 12.5537ZM9.5 15.0152C5.45422 15.0152 2 15.6621 2 18.2464C2 20.8298 5.4332 21.5 9.5 21.5C13.5448 21.5 17 20.8531 17 18.2687C17 15.6844 13.5668 15.0152 9.5 15.0152ZM19.8979 9.58786H21.101C21.5962 9.58786 22 9.99731 22 10.4995C22 11.0016 21.5962 11.4111 21.101 11.4111H19.8979V12.5884C19.8979 13.0906 19.4952 13.5 18.999 13.5C18.5038 13.5 18.1 13.0906 18.1 12.5884V11.4111H16.899C16.4027 11.4111 16 11.0016 16 10.4995C16 9.99731 16.4027 9.58786 16.899 9.58786H18.1V8.41162C18.1 7.90945 18.5038 7.5 18.999 7.5C19.4952 7.5 19.8979 7.90945 19.8979 8.41162V9.58786Z"
            fill="#FF0000" />
    </symbol>
    <symbol id="link" viewBox="0 0 24 24" fill="none" xmlns="http://www.w3.org/2000/svg">
        <path d="M9 17H6C3.23858 17 1 14.7614 1 12V12C1 9.23858 3.23858 7 6 7H9" stroke="#FF0000" stroke-width="1.5" stroke-linecap="round"/>
        <path d="M14 17H18C20.7614 17 23 14.7614 23 12V12C23 9.23858 20.7614 7 18 7H14" stroke="#FF0000" stroke-width="1.5" stroke-linecap="round"/>
        <line x1="6.75" y1="12.25" x2="17.25" y2="12.25" stroke="#FF0000" stroke-width="1.5" stroke-linecap="round"/>
    </symbol>
</svg>