<svg xmlns="http://www.w3.org/2000/svg" display="none">
    <symbol id="discord" viewBox="0 0 48 48" fill="none" xmlns="http://www.w3.org/2000/svg">
        <path
            d="M40.0616 9.05959C45.3981 16.9543 48.0336 25.8593 47.0484 36.111C47.0443 36.1544 47.0218 36.1942 46.9864 36.2203C42.9452 39.2061 39.0298 41.0181 35.1693 42.2198C35.1393 42.229 35.1071 42.2285 35.0773 42.2184C35.0476 42.2082 35.0217 42.189 35.0033 42.1633C34.1115 40.9147 33.3011 39.5983 32.5911 38.216C32.5504 38.1346 32.5876 38.0365 32.6715 38.0044C33.9585 37.5165 35.1823 36.9317 36.3595 36.2394C36.4522 36.1847 36.4581 36.051 36.3725 35.9868C36.1226 35.8002 35.8751 35.604 35.6383 35.4079C35.594 35.3717 35.5343 35.3645 35.4841 35.3889C27.8417 38.9399 19.4699 38.9399 11.7372 35.3889C11.687 35.3663 11.6273 35.374 11.5842 35.4097C11.3479 35.6058 11.0999 35.8002 10.8524 35.9868C10.7667 36.051 10.7738 36.1847 10.8671 36.2394C12.0443 36.9186 13.2681 37.5165 14.5534 38.0068C14.6367 38.0389 14.6762 38.1346 14.6349 38.216C13.9403 39.6001 13.1299 40.9165 12.2215 42.1651C12.1819 42.2156 12.117 42.2388 12.0555 42.2198C8.21336 41.0181 4.29796 39.2061 0.256756 36.2203C0.223089 36.1942 0.198873 36.1526 0.195329 36.1092C-0.628033 27.2416 1.04999 18.2629 7.1756 9.05781C7.19036 9.03344 7.21281 9.01442 7.2388 9.00313C10.2529 7.61128 13.4819 6.5873 16.8569 6.00251C16.9183 5.993 16.9797 6.02152 17.0116 6.0762C17.4286 6.81907 17.9053 7.77174 18.2278 8.55027C21.7853 8.00352 25.3982 8.00352 29.0301 8.55027C29.3526 7.78838 29.8127 6.81907 30.228 6.0762C30.2428 6.04907 30.2657 6.02734 30.2935 6.01411C30.3213 6.00088 30.3525 5.99681 30.3827 6.00251C33.7594 6.58908 36.9885 7.61306 40.0002 9.00313C40.0268 9.01442 40.0487 9.03344 40.0616 9.05959ZM20.0363 25.9199C20.0736 23.2984 18.174 21.1292 15.7896 21.1292C13.4246 21.1292 11.5434 23.2794 11.5434 25.9199C11.5434 28.5598 13.4619 30.71 15.7896 30.71C18.1551 30.71 20.0363 28.5598 20.0363 25.9199ZM35.7369 25.9199C35.7741 23.2984 33.8746 21.1292 31.4908 21.1292C29.1252 21.1292 27.244 23.2794 27.244 25.9199C27.244 28.5598 29.1624 30.71 31.4908 30.71C33.8746 30.71 35.7369 28.5598 35.7369 25.9199Z"
            fill="#FF0000" />
    </symbol>
    <symbol id="vk" viewBox="0 0 48 48" fill="none" xmlns="http://www.w3.org/2000/svg">
        <path id="Vector" fill-rule="evenodd" clip-rule="evenodd"
            d="M46.8987 11.9636C47.2325 10.8318 46.8987 10 45.3106 10H40.0594C38.724 10 38.1089 10.7185 37.7751 11.5111C37.7751 11.5111 35.1044 18.1326 31.3213 22.4338C30.0974 23.6788 29.5411 24.0745 28.8735 24.0745C28.5397 24.0745 28.0566 23.6788 28.0566 22.5471V11.9636C28.0566 10.6052 27.6691 10 26.5562 10H18.3043C17.4701 10 16.9682 10.6304 16.9682 11.2279C16.9682 12.5158 18.8594 12.8126 19.0544 16.4346V24.3016C19.0544 26.0263 18.7484 26.3392 18.0807 26.3392C16.3006 26.3392 11.9705 19.6875 9.40194 12.0769C8.89858 10.5976 8.39371 10 7.05165 10H1.80042C0.30007 10 0 10.7185 0 11.5111C0 12.9259 1.78054 19.9439 8.28943 29.2255C12.6292 35.5635 18.7424 39 24.3057 39C27.644 39 28.0566 38.2368 28.0566 36.9223V32.1316C28.0566 30.6053 28.3728 30.3008 29.4294 30.3008C30.2088 30.3008 31.5437 30.6968 34.6596 33.7529C38.2199 37.3745 38.8066 39 40.8095 39H46.0608C47.5611 39 48.3113 38.2368 47.8784 36.7307C47.4051 35.2296 45.7052 33.0523 43.4494 30.4706C42.2255 28.9988 40.3894 27.4141 39.8335 26.622C39.0545 25.6031 39.2769 25.1506 39.8335 24.2455C39.8335 24.2455 46.231 15.0769 46.8987 11.964V11.9636Z"
            fill="#FF0000" />
    </symbol>
    <symbol id="telegram" viewBox="0 0 48 48" fill="none" xmlns="http://www.w3.org/2000/svg">
        <path fill-rule="evenodd" clip-rule="evenodd"
            d="M3.29975 21.4978C16.1846 16.4173 24.7766 13.068 29.0756 11.4498C41.3501 6.82939 43.9006 6.02679 45.563 6.00028C45.9286 5.99445 46.7462 6.07646 47.2757 6.46534C47.7229 6.7937 47.8459 7.23726 47.9048 7.54859C47.9636 7.85991 48.0369 8.56911 47.9787 9.12325C47.3135 15.4482 44.4354 30.7972 42.9711 37.8812C42.3516 40.8787 41.1316 41.8838 39.9506 41.9822C37.3838 42.1959 35.4348 40.447 32.9488 38.9723C29.0587 36.6645 26.8611 35.2279 23.0851 32.976C18.7213 30.3735 21.5502 28.9431 24.0371 26.6055C24.6879 25.9937 35.9969 16.6845 36.2158 15.84C36.2432 15.7344 36.2686 15.3407 36.0101 15.1328C35.7517 14.925 35.3703 14.996 35.095 15.0526C34.7049 15.1327 28.4904 18.85 16.4517 26.2045C14.6877 27.3007 13.09 27.8348 11.6585 27.8068C10.0803 27.7759 7.04466 26.9993 4.78794 26.3354C2.01998 25.5211 -0.179935 25.0906 0.0116285 23.7077C0.111407 22.9874 1.20745 22.2508 3.29975 21.4978Z"
            fill="#FF0000" />
    </symbol>
</svg>